<svg width="25" height="24" viewBox="0 0 25 24" fill="none" xmlns="http://www.w3.org/2000/svg">
<g id="solar:confetti-linear">
<g id="Group">
<path id="Vector" d="M4.512 15.762L6.202 10.693C6.968 8.39499 7.351 7.24599 8.257 7.03299C9.163 6.81799 10.02 7.67499 11.732 9.38799L15.112 12.767C16.824 14.48 17.681 15.336 17.467 16.242C17.253 17.148 16.104 17.532 13.806 18.297L8.737 19.987C5.972 20.909 4.589 21.37 3.859 20.64C3.129 19.91 3.59 18.527 4.512 15.762Z" stroke="#121212" stroke-width="1.5" stroke-linecap="round"/>
<path id="Vector_2" d="M12.735 18.346C12.735 18.346 11.977 16.065 11.977 14.556C11.977 13.046 12.735 10.764 12.735 10.764M8.56501 19.484C8.56501 19.484 7.92501 16.731 7.80701 14.934C7.61201 11.965 8.56501 7.35299 8.56501 7.35299M15.01 10.006L15.153 9.28599C15.299 8.55899 15.823 7.96599 16.526 7.73199C16.8715 7.61672 17.1803 7.41218 17.4212 7.1391C17.6622 6.86602 17.8267 6.53411 17.898 6.17699L18.042 5.45699M18.07 13.253L18.282 13.376C18.939 13.756 19.765 13.672 20.333 13.169C20.5847 12.9456 20.8952 12.7989 21.2276 12.7463C21.56 12.6936 21.9006 12.7373 22.209 12.872L22.5 13M10.295 2.77899C10.131 3.04721 10.062 3.36283 10.0992 3.67503C10.1364 3.98722 10.2776 4.27781 10.5 4.49999L10.597 4.59799C10.991 4.99099 11.136 5.56799 10.975 6.10099" stroke="#121212" stroke-width="1.5" stroke-linecap="round"/>
<path id="Vector_3" d="M7.428 3.94002C7.47791 3.89025 7.53712 3.85079 7.60227 3.82391C7.66742 3.79702 7.73723 3.78323 7.80771 3.78333C7.87819 3.78342 7.94796 3.79739 8.01304 3.82445C8.07812 3.85151 8.13723 3.89112 8.187 3.94102C8.23677 3.99092 8.27623 4.05014 8.30311 4.11529C8.33 4.18044 8.34379 4.25025 8.3437 4.32073C8.34361 4.39121 8.32963 4.46098 8.30257 4.52606C8.27552 4.59114 8.23591 4.65025 8.186 4.70002C8.08522 4.80054 7.94864 4.8569 7.8063 4.85671C7.66396 4.85653 7.52752 4.7998 7.427 4.69902C7.32649 4.59824 7.27012 4.46165 7.27031 4.31931C7.2705 4.17697 7.32722 4.04054 7.428 3.94002ZM12.657 7.15702C12.7068 7.10718 12.766 7.06765 12.8311 7.04068C12.8962 7.01371 12.966 6.99983 13.0365 6.99983C13.107 6.99983 13.1768 7.01371 13.2419 7.04068C13.307 7.06765 13.3662 7.10718 13.416 7.15702C13.4658 7.20686 13.5054 7.26602 13.5323 7.33114C13.5593 7.39625 13.5732 7.46604 13.5732 7.53652C13.5732 7.607 13.5593 7.67679 13.5323 7.7419C13.5054 7.80702 13.4658 7.86618 13.416 7.91602C13.3154 8.01667 13.1788 8.07321 13.0365 8.07321C12.8942 8.07321 12.7577 8.01667 12.657 7.91602C12.5564 7.81537 12.4998 7.67886 12.4998 7.53652C12.4998 7.39418 12.5564 7.25767 12.657 7.15702ZM17.657 10.157C17.7068 10.1072 17.766 10.0676 17.8311 10.0407C17.8962 10.0137 17.966 9.99983 18.0365 9.99983C18.107 9.99983 18.1768 10.0137 18.2419 10.0407C18.307 10.0676 18.3662 10.1072 18.416 10.157C18.4658 10.2069 18.5054 10.266 18.5323 10.3311C18.5593 10.3962 18.5732 10.466 18.5732 10.5365C18.5732 10.607 18.5593 10.6768 18.5323 10.7419C18.5054 10.807 18.4658 10.8662 18.416 10.916C18.3154 11.0167 18.1788 11.0732 18.0365 11.0732C17.8942 11.0732 17.7577 11.0167 17.657 10.916C17.5564 10.8154 17.4998 10.6789 17.4998 10.5365C17.4998 10.3942 17.5564 10.2577 17.657 10.157ZM19.558 15.313C19.6078 15.2632 19.667 15.2237 19.7321 15.1967C19.7972 15.1697 19.867 15.1558 19.9375 15.1558C20.008 15.1558 20.0778 15.1697 20.1429 15.1967C20.208 15.2237 20.2672 15.2632 20.317 15.313C20.3668 15.3629 20.4064 15.422 20.4333 15.4871C20.4603 15.5523 20.4742 15.622 20.4742 15.6925C20.4742 15.763 20.4603 15.8328 20.4333 15.8979C20.4064 15.963 20.3668 16.0222 20.317 16.072C20.2164 16.1727 20.0798 16.2292 19.9375 16.2292C19.7952 16.2292 19.6587 16.1727 19.558 16.072C19.4574 15.9714 19.4008 15.8349 19.4008 15.6925C19.4008 15.5502 19.4574 15.4137 19.558 15.313Z" fill="#121212"/>
<path id="Vector_4" d="M19.862 7.71402C19.192 8.38402 19.672 10.328 19.672 10.328C19.672 10.328 21.616 10.809 22.286 10.138C22.996 9.42802 22.594 8.49802 21.5 8.50002C21.503 7.40602 20.572 7.00402 19.862 7.71402Z" stroke="#121212" stroke-linejoin="round"/>
<path id="Vector_5" d="M15.688 3.41701L15.661 3.51501C15.631 3.62101 15.615 3.67501 15.622 3.72701C15.629 3.77901 15.658 3.82501 15.715 3.91601L15.768 3.99801C15.969 4.31801 16.07 4.47801 16.002 4.60901C15.932 4.74001 15.74 4.75501 15.354 4.78501L15.254 4.79301C15.144 4.80201 15.09 4.80601 15.042 4.83101C14.994 4.85601 14.958 4.89901 14.887 4.98601L14.822 5.06501C14.572 5.36901 14.447 5.52101 14.304 5.50201C14.161 5.48201 14.094 5.30401 13.963 4.94701L13.929 4.85501C13.891 4.75301 13.873 4.70301 13.836 4.66501C13.799 4.62901 13.748 4.61001 13.647 4.57301L13.555 4.53901C13.198 4.40701 13.02 4.34101 13 4.19901C12.98 4.05501 13.133 3.92901 13.437 3.67901L13.516 3.61401C13.602 3.54401 13.646 3.50801 13.671 3.46001C13.696 3.41201 13.701 3.35701 13.709 3.24701L13.717 3.14701C13.747 2.76201 13.762 2.56901 13.892 2.50001C14.023 2.43101 14.183 2.53201 14.503 2.73401L14.586 2.78601C14.676 2.84401 14.722 2.87201 14.775 2.87901C14.827 2.88701 14.88 2.87101 14.987 2.84101L15.084 2.81401C15.46 2.70701 15.647 2.65401 15.748 2.75401C15.848 2.85401 15.795 3.04201 15.688 3.41701Z" stroke="#121212"/>
</g>
</g>
</svg>
