<svg width="25" height="24" viewBox="0 0 25 24" fill="none" xmlns="http://www.w3.org/2000/svg">
<g id="solar:medal-ribbons-star-linear">
<g id="Group">
<path id="Vector" d="M11.646 7.023C12.026 6.34 12.216 6 12.5 6C12.784 6 12.974 6.34 13.354 7.023L13.452 7.199C13.56 7.393 13.614 7.489 13.698 7.553C13.783 7.617 13.888 7.641 14.098 7.688L14.288 7.732C15.026 7.899 15.395 7.982 15.483 8.264C15.571 8.547 15.319 8.841 14.816 9.429L14.686 9.581C14.543 9.748 14.471 9.831 14.439 9.935C14.407 10.039 14.418 10.15 14.439 10.373L14.459 10.576C14.535 11.361 14.573 11.754 14.344 11.928C14.114 12.102 13.768 11.943 13.077 11.625L12.899 11.543C12.702 11.453 12.604 11.408 12.5 11.408C12.396 11.408 12.298 11.453 12.101 11.543L11.923 11.625C11.232 11.944 10.886 12.102 10.656 11.928C10.426 11.754 10.465 11.361 10.541 10.576L10.561 10.373C10.582 10.15 10.593 10.039 10.561 9.935C10.529 9.832 10.457 9.748 10.314 9.581L10.184 9.429C9.68101 8.841 9.42901 8.547 9.51701 8.264C9.60501 7.982 9.97401 7.899 10.712 7.732L10.902 7.688C11.112 7.641 11.217 7.618 11.302 7.553C11.386 7.489 11.44 7.393 11.548 7.199L11.646 7.023Z" stroke="#121212" stroke-width="1.5"/>
<path id="Vector_2" d="M19.5 9C19.5 9.91925 19.3189 10.8295 18.9672 11.6788C18.6154 12.5281 18.0998 13.2997 17.4497 13.9497C16.7997 14.5998 16.0281 15.1154 15.1788 15.4672C14.3295 15.8189 13.4193 16 12.5 16C11.5807 16 10.6705 15.8189 9.82122 15.4672C8.97194 15.1154 8.20026 14.5998 7.55025 13.9497C6.90024 13.2997 6.38463 12.5281 6.03284 11.6788C5.68106 10.8295 5.5 9.91925 5.5 9C5.5 7.14348 6.2375 5.36301 7.55025 4.05025C8.86301 2.7375 10.6435 2 12.5 2C14.3565 2 16.137 2.7375 17.4497 4.05025C18.7625 5.36301 19.5 7.14348 19.5 9Z" stroke="#121212" stroke-width="1.5"/>
<path id="Vector_3" d="M5.95599 12L3.49199 14.551C2.95199 15.11 2.68199 15.39 2.58799 15.627C2.37499 16.166 2.55799 16.765 3.02099 17.049C3.22499 17.173 3.59199 17.212 4.32599 17.29C4.74099 17.334 4.94799 17.355 5.12099 17.422C5.31442 17.497 5.48925 17.6131 5.63342 17.7623C5.77759 17.9114 5.88765 18.0901 5.95599 18.286C6.01999 18.466 6.04099 18.68 6.08399 19.11C6.15799 19.87 6.19599 20.25 6.31599 20.46C6.58999 20.94 7.16899 21.128 7.68899 20.908C7.91899 20.812 8.18899 20.533 8.72899 19.973L12.5 16.068L16.271 19.973C16.811 20.533 17.081 20.812 17.311 20.908C17.831 21.128 18.41 20.94 18.684 20.46C18.804 20.25 18.841 19.87 18.916 19.11C18.959 18.68 18.98 18.466 19.044 18.286C19.188 17.884 19.49 17.571 19.879 17.422C20.052 17.355 20.259 17.334 20.674 17.29C21.408 17.212 21.775 17.173 21.979 17.049C22.442 16.765 22.625 16.166 22.412 15.627C22.318 15.39 22.048 15.11 21.508 14.551L19.044 12" stroke="#121212" stroke-width="1.5"/>
</g>
</g>
</svg>
