<svg width="208" height="147" viewBox="0 0 208 147" fill="none" xmlns="http://www.w3.org/2000/svg">
<path id="&#226;&#128;&#156;" d="M36.9543 72.45L56.4873 69.3C65.6379 69.3 73.7326 72.45 80.7716 78.75C88.1624 84.7 91.8579 93.625 91.8579 105.525C91.8579 117.075 87.9864 126.875 80.2436 134.925C72.5008 142.975 61.5905 147 47.5127 147C33.7868 147 22.3486 141.75 13.198 131.25C4.39932 120.75 0 107.275 0 90.825C0 74.025 6.33502 57.4 19.0051 40.95C32.0271 24.5 50.5042 10.85 74.4365 0L78.132 8.92498C45.0491 27.125 28.5076 45.5 28.5076 64.05C28.5076 69.65 31.3232 72.45 36.9543 72.45ZM153.096 72.45L172.629 69.3C181.78 69.3 189.875 72.45 196.914 78.75C204.305 84.7 208 93.625 208 105.525C208 117.075 204.129 126.875 196.386 134.925C188.643 142.975 177.733 147 163.655 147C149.929 147 138.491 141.75 129.34 131.25C120.541 120.75 116.142 107.275 116.142 90.825C116.142 74.025 122.477 57.4 135.147 40.95C148.169 24.5 166.646 10.85 190.579 0L194.274 8.92498C161.191 27.125 144.65 45.5 144.65 64.05C144.65 69.65 147.465 72.45 153.096 72.45Z" fill="#5C59D4"/>
</svg>
